<mxfile host="Electron" modified="2023-06-15T09:27:06.066Z" agent="Mozilla/5.0 (X11; Linux x86_64) AppleWebKit/537.36 (KHTML, like Gecko) draw.io/21.3.7 Chrome/112.0.5615.204 Electron/24.5.0 Safari/537.36" etag="IYHm8CNDS5MVu6ZU880b" version="21.3.7" type="device">
  <diagram name="PÃ gina-1" id="iRYxVD3ajKkidl4u7RNc">
    <mxGraphModel dx="1434" dy="866" grid="1" gridSize="10" guides="1" tooltips="1" connect="1" arrows="1" fold="1" page="1" pageScale="1" pageWidth="1169" pageHeight="827" math="0" shadow="0">
      <root>
        <mxCell id="0" />
        <mxCell id="1" parent="0" />
        <mxCell id="L46B3ZiNC23wrgTYQKNn-14" style="edgeStyle=orthogonalEdgeStyle;rounded=0;orthogonalLoop=1;jettySize=auto;html=1;exitX=1;exitY=0.5;exitDx=0;exitDy=0;" edge="1" parent="1" source="L46B3ZiNC23wrgTYQKNn-1" target="L46B3ZiNC23wrgTYQKNn-3">
          <mxGeometry relative="1" as="geometry" />
        </mxCell>
        <mxCell id="L46B3ZiNC23wrgTYQKNn-1" value="actions&lt;br&gt;from timer&lt;br&gt;(onTamTam)" style="ellipse;whiteSpace=wrap;html=1;" vertex="1" parent="1">
          <mxGeometry x="40" y="200" width="120" height="80" as="geometry" />
        </mxCell>
        <mxCell id="L46B3ZiNC23wrgTYQKNn-15" style="edgeStyle=orthogonalEdgeStyle;rounded=0;orthogonalLoop=1;jettySize=auto;html=1;exitX=1;exitY=0.5;exitDx=0;exitDy=0;entryX=0;entryY=0.5;entryDx=0;entryDy=0;" edge="1" parent="1" source="L46B3ZiNC23wrgTYQKNn-2" target="L46B3ZiNC23wrgTYQKNn-3">
          <mxGeometry relative="1" as="geometry" />
        </mxCell>
        <mxCell id="L46B3ZiNC23wrgTYQKNn-2" value="actions&lt;br&gt;from keyboard&lt;br&gt;(touchMe)" style="ellipse;whiteSpace=wrap;html=1;" vertex="1" parent="1">
          <mxGeometry x="40" y="320" width="120" height="80" as="geometry" />
        </mxCell>
        <mxCell id="L46B3ZiNC23wrgTYQKNn-16" style="edgeStyle=orthogonalEdgeStyle;rounded=0;orthogonalLoop=1;jettySize=auto;html=1;exitX=1;exitY=0.5;exitDx=0;exitDy=0;entryX=0;entryY=0.5;entryDx=0;entryDy=0;" edge="1" parent="1" source="L46B3ZiNC23wrgTYQKNn-3" target="L46B3ZiNC23wrgTYQKNn-5">
          <mxGeometry relative="1" as="geometry" />
        </mxCell>
        <mxCell id="L46B3ZiNC23wrgTYQKNn-18" style="edgeStyle=orthogonalEdgeStyle;rounded=0;orthogonalLoop=1;jettySize=auto;html=1;exitX=1;exitY=0.5;exitDx=0;exitDy=0;entryX=0;entryY=0.5;entryDx=0;entryDy=0;" edge="1" parent="1" source="L46B3ZiNC23wrgTYQKNn-3" target="L46B3ZiNC23wrgTYQKNn-7">
          <mxGeometry relative="1" as="geometry" />
        </mxCell>
        <mxCell id="L46B3ZiNC23wrgTYQKNn-30" style="edgeStyle=orthogonalEdgeStyle;rounded=0;orthogonalLoop=1;jettySize=auto;html=1;exitX=1;exitY=0.5;exitDx=0;exitDy=0;entryX=0;entryY=0.5;entryDx=0;entryDy=0;" edge="1" parent="1" source="L46B3ZiNC23wrgTYQKNn-3" target="L46B3ZiNC23wrgTYQKNn-4">
          <mxGeometry relative="1" as="geometry" />
        </mxCell>
        <mxCell id="L46B3ZiNC23wrgTYQKNn-31" style="edgeStyle=orthogonalEdgeStyle;rounded=0;orthogonalLoop=1;jettySize=auto;html=1;exitX=1;exitY=0.5;exitDx=0;exitDy=0;entryX=0;entryY=0.5;entryDx=0;entryDy=0;" edge="1" parent="1" source="L46B3ZiNC23wrgTYQKNn-3" target="L46B3ZiNC23wrgTYQKNn-6">
          <mxGeometry relative="1" as="geometry" />
        </mxCell>
        <mxCell id="L46B3ZiNC23wrgTYQKNn-3" value="player actions&lt;br&gt;(playerMove)" style="ellipse;whiteSpace=wrap;html=1;" vertex="1" parent="1">
          <mxGeometry x="240" y="260" width="120" height="80" as="geometry" />
        </mxCell>
        <mxCell id="L46B3ZiNC23wrgTYQKNn-33" style="edgeStyle=orthogonalEdgeStyle;rounded=0;orthogonalLoop=1;jettySize=auto;html=1;exitX=1;exitY=0.5;exitDx=0;exitDy=0;entryX=0;entryY=0.5;entryDx=0;entryDy=0;" edge="1" parent="1" source="L46B3ZiNC23wrgTYQKNn-4" target="L46B3ZiNC23wrgTYQKNn-32">
          <mxGeometry relative="1" as="geometry" />
        </mxCell>
        <mxCell id="L46B3ZiNC23wrgTYQKNn-4" value="go&lt;br&gt;(playerGoForward)" style="ellipse;whiteSpace=wrap;html=1;" vertex="1" parent="1">
          <mxGeometry x="440" y="80" width="120" height="80" as="geometry" />
        </mxCell>
        <mxCell id="L46B3ZiNC23wrgTYQKNn-22" style="edgeStyle=orthogonalEdgeStyle;rounded=0;orthogonalLoop=1;jettySize=auto;html=1;exitX=1;exitY=0.5;exitDx=0;exitDy=0;entryX=0;entryY=0.5;entryDx=0;entryDy=0;" edge="1" parent="1" source="L46B3ZiNC23wrgTYQKNn-5" target="L46B3ZiNC23wrgTYQKNn-19">
          <mxGeometry relative="1" as="geometry" />
        </mxCell>
        <mxCell id="L46B3ZiNC23wrgTYQKNn-5" value="reverse&lt;br&gt;(playerGoReverse)" style="ellipse;whiteSpace=wrap;html=1;" vertex="1" parent="1">
          <mxGeometry x="440" y="200" width="120" height="80" as="geometry" />
        </mxCell>
        <mxCell id="L46B3ZiNC23wrgTYQKNn-23" style="edgeStyle=orthogonalEdgeStyle;rounded=0;orthogonalLoop=1;jettySize=auto;html=1;exitX=1;exitY=0.5;exitDx=0;exitDy=0;entryX=0;entryY=0.5;entryDx=0;entryDy=0;" edge="1" parent="1" source="L46B3ZiNC23wrgTYQKNn-6" target="L46B3ZiNC23wrgTYQKNn-19">
          <mxGeometry relative="1" as="geometry" />
        </mxCell>
        <mxCell id="L46B3ZiNC23wrgTYQKNn-6" value="turn left&lt;br&gt;(playerGoLeft)" style="ellipse;whiteSpace=wrap;html=1;" vertex="1" parent="1">
          <mxGeometry x="440" y="320" width="120" height="80" as="geometry" />
        </mxCell>
        <mxCell id="L46B3ZiNC23wrgTYQKNn-24" style="edgeStyle=orthogonalEdgeStyle;rounded=0;orthogonalLoop=1;jettySize=auto;html=1;exitX=1;exitY=0.5;exitDx=0;exitDy=0;entryX=0;entryY=0.5;entryDx=0;entryDy=0;" edge="1" parent="1" source="L46B3ZiNC23wrgTYQKNn-7" target="L46B3ZiNC23wrgTYQKNn-19">
          <mxGeometry relative="1" as="geometry" />
        </mxCell>
        <mxCell id="L46B3ZiNC23wrgTYQKNn-7" value="turn right&lt;br&gt;(playerGoRight)" style="ellipse;whiteSpace=wrap;html=1;" vertex="1" parent="1">
          <mxGeometry x="440" y="440" width="120" height="80" as="geometry" />
        </mxCell>
        <mxCell id="L46B3ZiNC23wrgTYQKNn-19" value="set compass&lt;br&gt;(pointToCompass)" style="ellipse;whiteSpace=wrap;html=1;" vertex="1" parent="1">
          <mxGeometry x="640" y="320" width="120" height="80" as="geometry" />
        </mxCell>
        <mxCell id="L46B3ZiNC23wrgTYQKNn-28" style="edgeStyle=orthogonalEdgeStyle;rounded=0;orthogonalLoop=1;jettySize=auto;html=1;exitX=1;exitY=0.5;exitDx=0;exitDy=0;entryX=0;entryY=0.5;entryDx=0;entryDy=0;" edge="1" parent="1" source="L46B3ZiNC23wrgTYQKNn-19" target="L46B3ZiNC23wrgTYQKNn-21">
          <mxGeometry relative="1" as="geometry">
            <mxPoint x="800" y="360" as="sourcePoint" />
          </mxGeometry>
        </mxCell>
        <mxCell id="L46B3ZiNC23wrgTYQKNn-21" value="show on scene&lt;br&gt;(playerDraw)" style="ellipse;whiteSpace=wrap;html=1;" vertex="1" parent="1">
          <mxGeometry x="840" y="200" width="120" height="80" as="geometry" />
        </mxCell>
        <mxCell id="L46B3ZiNC23wrgTYQKNn-35" style="edgeStyle=orthogonalEdgeStyle;rounded=0;orthogonalLoop=1;jettySize=auto;html=1;exitX=1;exitY=0.5;exitDx=0;exitDy=0;entryX=0;entryY=0.5;entryDx=0;entryDy=0;" edge="1" parent="1" source="L46B3ZiNC23wrgTYQKNn-32" target="L46B3ZiNC23wrgTYQKNn-21">
          <mxGeometry relative="1" as="geometry" />
        </mxCell>
        <mxCell id="L46B3ZiNC23wrgTYQKNn-37" value="" style="swimlane;startSize=0;fillColor=#f8cecc;strokeColor=#b85450;fillStyle=solid;strokeWidth=3;rounded=1;" vertex="1" parent="1">
          <mxGeometry x="620" y="60" width="160" height="360" as="geometry" />
        </mxCell>
        <mxCell id="L46B3ZiNC23wrgTYQKNn-38" value="class Player" style="text;html=1;align=center;verticalAlign=middle;resizable=0;points=[];autosize=1;strokeColor=#b85450;fillColor=#f8cecc;" vertex="1" parent="L46B3ZiNC23wrgTYQKNn-37">
          <mxGeometry x="35" y="155" width="90" height="30" as="geometry" />
        </mxCell>
        <mxCell id="L46B3ZiNC23wrgTYQKNn-32" value="set position&lt;br&gt;(setPos)" style="ellipse;whiteSpace=wrap;html=1;" vertex="1" parent="L46B3ZiNC23wrgTYQKNn-37">
          <mxGeometry x="20" y="20" width="120" height="80" as="geometry" />
        </mxCell>
      </root>
    </mxGraphModel>
  </diagram>
</mxfile>
